<svg width="20" height="20" viewBox="0 0 20 20" fill="none" xmlns="http://www.w3.org/2000/svg">
<path d="M3.4991 19.744C2.85004 19.7438 2.2138 19.5632 1.66149 19.2222C1.10918 18.8813 0.662564 18.3935 0.371539 17.8133C0.0805144 17.2331 -0.0434496 16.5835 0.0134997 15.9369C0.0704489 15.2903 0.306068 14.6724 0.694027 14.152C1.08199 13.6316 1.607 13.2294 2.2104 12.9902C2.81381 12.7511 3.47183 12.6844 4.11093 12.7977C4.75003 12.911 5.34504 13.1998 5.82947 13.6318C6.3139 14.0638 6.66865 14.622 6.8541 15.244H12.4991V13.244H14.4991V7.486L12.2561 5.244H6.4991V7.244H0.499104V1.244H6.4991V3.244H12.2561L15.4991 0L19.7421 4.244L16.4991 7.485V13.244H18.4991V19.244H12.4991V17.244H6.8541C6.63871 17.9665 6.1958 18.6001 5.59129 19.0505C4.98678 19.501 4.25299 19.7442 3.4991 19.744ZM3.4991 14.744C3.10128 14.744 2.71975 14.902 2.43844 15.1833C2.15714 15.4646 1.9991 15.8462 1.9991 16.244C1.9991 16.6418 2.15714 17.0234 2.43844 17.3047C2.71975 17.586 3.10128 17.744 3.4991 17.744C3.89693 17.744 4.27846 17.586 4.55976 17.3047C4.84107 17.0234 4.9991 16.6418 4.9991 16.244C4.9991 15.8462 4.84107 15.4646 4.55976 15.1833C4.27846 14.902 3.89693 14.744 3.4991 14.744ZM16.4991 15.244H14.4991V17.244H16.4991V15.244ZM15.4991 2.83L14.0851 4.244L15.4991 5.658L16.9131 4.244L15.4991 2.83ZM4.4991 3.244H2.4991V5.244H4.4991V3.244Z" fill="#197FC5"/>
</svg>
