<svg width="13" height="13" viewBox="0 0 13 13" fill="none" xmlns="http://www.w3.org/2000/svg">
<path d="M7.60204 1.12059C7.60537 0.505041 7.10954 0.00334343 6.49459 1.66281e-05C5.87963 -0.00331021 5.37841 0.492994 5.37509 1.10854L5.35194 5.39622L1.12059 5.37338C0.505043 5.37005 0.00334353 5.86588 1.66284e-05 6.48083C-0.00331024 7.09579 0.492995 7.597 1.10855 7.60033L5.34527 7.6232L5.34527 11.8854C5.34527 12.501 5.8438 13 6.45876 13C7.07373 13 7.57226 12.501 7.57226 11.8854V7.63015H11.8854C12.501 7.63015 13 7.13162 13 6.51666C13 5.90169 12.501 5.40317 11.8854 5.40317L7.57892 5.40316L7.60204 1.12059Z" fill="white"/>
</svg>
