<svg width="12" height="14" viewBox="0 0 12 14" fill="none" xmlns="http://www.w3.org/2000/svg">
<path d="M1 0C1.55228 5.05227e-08 2 0.447715 2 1L2 13C2 13.5523 1.55228 14 1 14C0.447716 14 4.82822e-08 13.5523 0 13L0 1C-1.03507e-09 0.447715 0.447715 4.82823e-08 1 0ZM10.293 0.292969C10.6835 -0.0975553 11.3165 -0.0975548 11.707 0.292969C12.0976 0.683493 12.0976 1.31651 11.707 1.70703L6.41406 7L11.707 12.293C12.0976 12.6835 12.0976 13.3165 11.707 13.707C11.3165 14.0976 10.6835 14.0976 10.293 13.707L4.29297 7.70703C4.10543 7.5195 4 7.26522 4 7C4 6.73478 4.10543 6.4805 4.29297 6.29297L10.293 0.292969Z" fill="#767676"/>
</svg>
