<svg width="14" height="14" viewBox="0 0 14 14" fill="none" xmlns="http://www.w3.org/2000/svg">
<path d="M1.33333 13.35C0.966667 13.35 0.652889 13.2196 0.392 12.9587C0.131111 12.6978 0.000444444 12.3838 0 12.0167V2.68333C0 2.31667 0.130667 2.00289 0.392 1.742C0.653333 1.48111 0.967111 1.35044 1.33333 1.35H5.68333C5.90556 1.35 6.07222 1.41956 6.18333 1.55867C6.29444 1.69778 6.35 1.85044 6.35 2.01667C6.35 2.18289 6.29178 2.33578 6.17533 2.47533C6.05889 2.61489 5.88933 2.68422 5.66667 2.68333H1.33333V12.0167H10.6667V7.66667C10.6667 7.44444 10.7362 7.27778 10.8753 7.16667C11.0144 7.05556 11.1671 7 11.3333 7C11.4996 7 11.6524 7.05556 11.792 7.16667C11.9316 7.27778 12.0009 7.44444 12 7.66667V12.0167C12 12.3833 11.8696 12.6973 11.6087 12.9587C11.3478 13.22 11.0338 13.3504 10.6667 13.35H1.33333ZM4 8.68333V7.06667C4 6.88889 4.03333 6.71933 4.1 6.558C4.16667 6.39667 4.26111 6.25511 4.38333 6.13333L10.1167 0.4C10.25 0.266667 10.4 0.166667 10.5667 0.1C10.7333 0.0333333 10.9 0 11.0667 0C11.2444 0 11.414 0.0333333 11.5753 0.1C11.7367 0.166667 11.8838 0.266667 12.0167 0.4L12.95 1.35C13.0722 1.48333 13.1667 1.63067 13.2333 1.792C13.3 1.95333 13.3333 2.11711 13.3333 2.28333C13.3333 2.44956 13.3029 2.61356 13.242 2.77533C13.1811 2.93711 13.0838 3.08422 12.95 3.21667L7.21667 8.95C7.09444 9.07222 6.95289 9.16956 6.792 9.242C6.63111 9.31444 6.46156 9.35044 6.28333 9.35H4.66667C4.47778 9.35 4.31956 9.286 4.192 9.158C4.06444 9.03 4.00044 8.87178 4 8.68333ZM5.33333 8.01667H6.26667L10.1333 4.15L9.66667 3.68333L9.18333 3.21667L5.33333 7.06667V8.01667Z" fill="white"/>
</svg>
