<svg width="12" height="14" viewBox="0 0 12 14" fill="none" xmlns="http://www.w3.org/2000/svg">
<path d="M11 0C10.4477 5.05227e-08 10 0.447715 10 1V13C10 13.5523 10.4477 14 11 14C11.5523 14 12 13.5523 12 13V1C12 0.447715 11.5523 4.82823e-08 11 0ZM1.70703 0.292969C1.31651 -0.0975553 0.683493 -0.0975548 0.292969 0.292969C-0.0975552 0.683493 -0.0975552 1.31651 0.292969 1.70703L5.58594 7L0.292969 12.293C-0.0975552 12.6835 -0.0975552 13.3165 0.292969 13.707C0.683493 14.0976 1.31651 14.0976 1.70703 13.707L7.70703 7.70703C7.89457 7.5195 8 7.26522 8 7C8 6.73478 7.89457 6.4805 7.70703 6.29297L1.70703 0.292969Z" fill="#767676"/>
</svg>
