<svg width="21" height="19" viewBox="0 0 21 19" fill="none" xmlns="http://www.w3.org/2000/svg">
<path d="M2 6V14V2V6ZM12 17C12.2833 17 12.521 16.904 12.713 16.712C12.905 16.52 13.0007 16.2827 13 16C12.9993 15.7173 12.9033 15.48 12.712 15.288C12.5207 15.096 12.2833 15 12 15C11.7167 15 11.4793 15.096 11.288 15.288C11.0967 15.48 11.0007 15.7173 11 16C10.9993 16.2827 11.0953 16.5203 11.288 16.713C11.4807 16.9057 11.718 17.0013 12 17ZM18 7C18.2833 7 18.521 6.904 18.713 6.712C18.905 6.52 19.0007 6.28267 19 6C18.9993 5.71733 18.9033 5.48 18.712 5.288C18.5207 5.096 18.2833 5 18 5C17.7167 5 17.4793 5.096 17.288 5.288C17.0967 5.48 17.0007 5.71733 17 6C16.9993 6.28267 17.0953 6.52033 17.288 6.713C17.4807 6.90567 17.718 7.00133 18 7ZM8 7C8.28333 7 8.521 6.904 8.713 6.712C8.905 6.52 9.00067 6.28267 9 6C8.99933 5.71733 8.90333 5.48 8.712 5.288C8.52067 5.096 8.28333 5 8 5H5C4.71667 5 4.47933 5.096 4.288 5.288C4.09667 5.48 4.00067 5.71733 4 6C3.99933 6.28267 4.09533 6.52033 4.288 6.713C4.48067 6.90567 4.718 7.00133 5 7H8ZM8 11C8.28333 11 8.521 10.904 8.713 10.712C8.905 10.52 9.00067 10.2827 9 10C8.99933 9.71733 8.90333 9.48 8.712 9.288C8.52067 9.096 8.28333 9 8 9H5C4.71667 9 4.47933 9.096 4.288 9.288C4.09667 9.48 4.00067 9.71733 4 10C3.99933 10.2827 4.09533 10.5203 4.288 10.713C4.48067 10.9057 4.718 11.0013 5 11H8ZM2 16C1.45 16 0.979333 15.8043 0.588 15.413C0.196667 15.0217 0.000666667 14.5507 0 14V2C0 1.45 0.196 0.979333 0.588 0.588C0.98 0.196666 1.45067 0.000666667 2 0H19C19.2833 0 19.521 0.0960001 19.713 0.288C19.905 0.48 20.0007 0.717333 20 1C19.9993 1.28267 19.9033 1.52033 19.712 1.713C19.5207 1.90567 19.2833 2.00133 19 2H2V14H6C6.28333 14 6.521 14.096 6.713 14.288C6.905 14.48 7.00067 14.7173 7 15C6.99933 15.2827 6.90333 15.5203 6.712 15.713C6.52067 15.9057 6.28333 16.0013 6 16H2ZM12 19C11.1667 19 10.4583 18.7083 9.875 18.125C9.29167 17.5417 9 16.8333 9 16C9 15.35 9.18767 14.7667 9.563 14.25C9.93833 13.7333 10.4173 13.375 11 13.175V11C11 10.7167 11.096 10.4793 11.288 10.288C11.48 10.0967 11.7173 10.0007 12 10H17V8.825C16.4167 8.625 15.9377 8.26667 15.563 7.75C15.1883 7.23333 15.0007 6.65 15 6C15 5.16667 15.2917 4.45833 15.875 3.875C16.4583 3.29167 17.1667 3 18 3C18.8333 3 19.5417 3.29167 20.125 3.875C20.7083 4.45833 21 5.16667 21 6C21 6.65 20.8127 7.23333 20.438 7.75C20.0633 8.26667 19.584 8.625 19 8.825V11C19 11.2833 18.904 11.521 18.712 11.713C18.52 11.905 18.2827 12.0007 18 12H13V13.175C13.5833 13.375 14.0627 13.7333 14.438 14.25C14.8133 14.7667 15.0007 15.35 15 16C15 16.8333 14.7083 17.5417 14.125 18.125C13.5417 18.7083 12.8333 19 12 19Z" fill="#197FC5"/>
</svg>
