<svg width="16" height="16" viewBox="0 0 16 16" fill="none" xmlns="http://www.w3.org/2000/svg">
<path d="M7.33325 11.3335H8.66659V7.3335H7.33325V11.3335ZM7.99992 6.00016C8.18881 6.00016 8.34725 5.93616 8.47525 5.80816C8.60325 5.68016 8.66703 5.52194 8.66659 5.3335C8.66614 5.14505 8.60214 4.98683 8.47459 4.85883C8.34703 4.73083 8.18881 4.66683 7.99992 4.66683C7.81103 4.66683 7.65281 4.73083 7.52525 4.85883C7.3977 4.98683 7.3337 5.14505 7.33325 5.3335C7.33281 5.52194 7.39681 5.68039 7.52525 5.80883C7.6537 5.93727 7.81192 6.00105 7.99992 6.00016ZM7.99992 14.6668C7.0777 14.6668 6.21103 14.4917 5.39992 14.1415C4.58881 13.7913 3.88325 13.3164 3.28325 12.7168C2.68325 12.1173 2.20836 11.4117 1.85859 10.6002C1.50881 9.78861 1.3337 8.92194 1.33325 8.00016C1.33281 7.07839 1.50792 6.21172 1.85859 5.40016C2.20925 4.58861 2.68414 3.88305 3.28325 3.2835C3.88236 2.68394 4.58792 2.20905 5.39992 1.85883C6.21192 1.50861 7.07859 1.3335 7.99992 1.3335C8.92125 1.3335 9.78792 1.50861 10.5999 1.85883C11.4119 2.20905 12.1175 2.68394 12.7166 3.2835C13.3157 3.88305 13.7908 4.58861 14.1419 5.40016C14.493 6.21172 14.6679 7.07839 14.6666 8.00016C14.6653 8.92194 14.4901 9.78861 14.1413 10.6002C13.7924 11.4117 13.3175 12.1173 12.7166 12.7168C12.1157 13.3164 11.4101 13.7915 10.5999 14.1422C9.7897 14.4928 8.92303 14.6677 7.99992 14.6668ZM7.99992 13.3335C9.48881 13.3335 10.7499 12.8168 11.7833 11.7835C12.8166 10.7502 13.3333 9.48905 13.3333 8.00016C13.3333 6.51127 12.8166 5.25016 11.7833 4.21683C10.7499 3.1835 9.48881 2.66683 7.99992 2.66683C6.51103 2.66683 5.24992 3.1835 4.21659 4.21683C3.18325 5.25016 2.66659 6.51127 2.66659 8.00016C2.66659 9.48905 3.18325 10.7502 4.21659 11.7835C5.24992 12.8168 6.51103 13.3335 7.99992 13.3335Z" fill="#FF3B30"/>
</svg>
