<svg width="18" height="18" viewBox="0 0 18 18" fill="none" xmlns="http://www.w3.org/2000/svg">
<path d="M16.29 0.294824C16.6794 -0.0967396 17.3125 -0.0984733 17.7041 0.290917C18.0712 0.656037 18.0956 1.23515 17.7763 1.62881L17.708 1.70498L10.413 9.03896L17.7041 16.2899L17.7734 16.3661C18.0945 16.758 18.0729 17.337 17.708 17.704C17.3185 18.0956 16.6855 18.0973 16.2939 17.7079L8.998 10.4521L1.70504 17.7079L1.62886 17.7763C1.23525 18.0955 0.656096 18.0711 0.290973 17.704C-0.0739437 17.337 -0.0954725 16.758 0.225544 16.3661L0.294879 16.2899L7.58492 9.03701L0.290973 1.70498L0.222614 1.62881C-0.0965465 1.2352 -0.0721431 0.656012 0.294879 0.290917C0.661822 -0.0739288 1.24091 -0.09545 1.63277 0.225488L1.70894 0.294824L8.99996 7.62393L16.29 0.294824Z" fill="#202020"/>
</svg>
