<svg width="9" height="9" viewBox="0 0 9 9" fill="none" xmlns="http://www.w3.org/2000/svg">
<path d="M6.64583 8.06005C7.03636 8.45057 7.66952 8.45057 8.06005 8.06005C8.45057 7.66952 8.45057 7.03636 8.06005 6.64583L5.76722 4.353L8.41311 1.70711C8.80363 1.31658 8.80363 0.683418 8.41311 0.292894C8.02259 -0.0976308 7.38942 -0.0976308 6.9989 0.292894L4.353 2.93879L1.70711 0.292893C1.31658 -0.0976311 0.683418 -0.0976311 0.292893 0.292893C-0.0976311 0.683417 -0.0976311 1.31658 0.292893 1.70711L2.93879 4.353L0.645956 6.64583C0.255432 7.03636 0.255432 7.66952 0.645956 8.06005C1.03648 8.45057 1.66965 8.45057 2.06017 8.06005L4.353 5.76722L6.64583 8.06005Z" fill="white"/>
</svg>
