<svg width="304" height="44" viewBox="0 0 304 44" fill="none" xmlns="http://www.w3.org/2000/svg">
<path d="M303.457 0H129.351V44H303.457V0Z" fill="#004EA2"/>
<path d="M135.549 6.22436H147.848C157.756 6.22436 164.601 13.023 164.601 21.8965V21.9845C164.601 30.8579 157.756 37.7498 147.848 37.7498H135.549V6.22436ZM142.482 12.4849V31.4944H147.843C153.519 31.4944 157.347 27.6656 157.347 22.0828V21.9948C157.347 16.412 153.519 12.4901 147.843 12.4901H142.482V12.4849Z" fill="white"/>
<path d="M168.518 6.22436H192.298V12.397H175.41V18.7921H190.275V24.9647H175.41V31.5875H192.526V37.7601H168.518V6.22436Z" fill="white"/>
<path d="M194.28 33.1604L198.377 28.2502C201.213 30.5941 204.188 32.079 207.789 32.079C210.624 32.079 212.337 30.9511 212.337 29.1039V29.016C212.337 27.262 211.256 26.3565 205.983 25.0061C199.635 23.3866 195.537 21.6275 195.537 15.3669V15.2789C195.537 9.55644 200.131 5.77422 206.573 5.77422C211.168 5.77422 215.084 7.21778 218.282 9.7841L214.676 15.0099C211.882 13.0748 209.139 11.9003 206.48 11.9003C203.82 11.9003 202.423 13.1162 202.423 14.6477V14.7357C202.423 16.8053 203.774 17.4831 209.227 18.8801C215.622 20.5461 219.229 22.8434 219.229 28.3382V28.4261C219.229 34.6867 214.453 38.1999 207.654 38.1999C202.879 38.1999 198.062 36.5339 194.28 33.1552V33.1604Z" fill="white"/>
<path d="M223.332 6.22436H230.27V37.7549H223.332V6.22436Z" fill="white"/>
<path d="M234.503 22.0828V21.9948C234.503 13.0334 241.482 5.69144 251.034 5.69144C256.709 5.69144 260.135 7.22295 263.42 10.0169L259.048 15.2893C256.616 13.2611 254.454 12.0917 250.806 12.0917C245.761 12.0917 241.751 16.5517 241.751 21.912V22C241.751 27.7639 245.715 32.0014 251.297 32.0014C253.817 32.0014 256.073 31.3702 257.827 30.1077V25.6011H250.847V19.6096H264.543V33.3001C261.299 36.0475 256.839 38.2982 251.075 38.2982C241.255 38.2982 234.503 31.4064 234.503 22.0828Z" fill="white"/>
<path d="M275.636 6.22436L290.408 25.6373V6.22436H297.253V37.7549H291.35L276.081 17.7107V37.7549H269.236V6.22436H275.636Z" fill="white"/>
<path d="M123.168 0.0258702H106.549V43.9741H123.168V0.0258702Z" fill="#231815"/>
<path d="M83.7518 0.0258702L57.7005 43.9793H66.0152L83.757 14.0475V43.9793H100.376V0.0258702H83.7518Z" fill="#231815"/>
<path d="M69.2697 0.0258702L51.5279 29.9577V0.0258702H34.9037L17.162 29.9577V0.0258702H0.542969V43.9793H17.1671L34.9089 14.0475V43.9793H51.5331L77.5844 0.0258702H69.2697Z" fill="#231815"/>
</svg>
