<svg width="586" height="86" viewBox="0 0 586 86" fill="none" xmlns="http://www.w3.org/2000/svg">
<path d="M284.69 24.4225H274.33V61.1625H284.69C295.66 61.1625 303.06 53.7625 303.06 42.9725V42.8025C303.06 32.0125 295.66 24.4325 284.69 24.4325V24.4225Z" fill="white"/>
<path d="M248.95 0.29248V85.3325H585.45V0.29248H248.95ZM317.08 42.7925C317.08 59.9425 303.85 73.2625 284.7 73.2625H260.93V12.3225H284.7C303.85 12.3225 317.08 25.4625 317.08 42.6125V42.7925ZM371.05 73.2625H324.65V12.3225H370.61V24.2525H337.97V36.6125H366.7V48.5425H337.97V61.3425H371.05V73.2725V73.2625ZM422.67 55.2425C422.67 67.3425 413.44 74.1325 400.3 74.1325C391.07 74.1325 381.76 70.9125 374.45 64.3825L382.37 54.8925C387.85 59.4225 393.6 62.2925 400.56 62.2925C406.04 62.2925 409.35 60.1125 409.35 56.5425V56.3725C409.35 52.9825 407.26 51.2325 397.07 48.6225C384.8 45.4925 376.88 42.0925 376.88 29.9925V29.8225C376.88 18.7625 385.76 11.4525 398.21 11.4525C407.09 11.4525 414.66 14.2425 420.84 19.2025L413.87 29.3025C408.47 25.5625 403.17 23.2925 398.03 23.2925C392.89 23.2925 390.19 25.6425 390.19 28.6025V28.7725C390.19 32.7725 392.8 34.0825 403.34 36.7825C415.7 40.0025 422.67 44.4425 422.67 55.0625V55.2425ZM444 73.2625H430.59V12.3225H444V73.2625ZM510.24 64.6425C503.97 69.9525 495.35 74.3025 484.21 74.3025C465.23 74.3025 452.18 60.9825 452.18 42.9625V42.7925C452.18 25.4725 465.67 11.2825 484.13 11.2825C495.1 11.2825 501.72 14.2425 508.07 19.6425L499.63 29.8225C494.93 25.9025 490.75 23.6425 483.7 23.6425C473.95 23.6425 466.2 32.2625 466.2 42.6225V42.7925C466.2 53.9325 473.86 62.1225 484.65 62.1225C489.52 62.1225 493.88 60.9025 497.27 58.4625V49.7525H483.78V38.1725H510.25V64.6325L510.24 64.6425ZM573.47 73.2625H562.06L532.55 34.5225V73.2625H519.32V12.3225H531.68L560.23 49.8425V12.3225H573.46V73.2625H573.47Z" fill="white"/>
<path d="M237 0.34248H204.88V85.2825H237V0.34248Z" fill="white"/>
<path d="M160.82 0.34248L110.47 85.2925H126.54L160.83 27.4425V85.2925H192.95V0.34248H160.82Z" fill="white"/>
<path d="M132.83 0.34248L98.55 58.1925V0.34248H66.41L32.12 58.1925V0.34248H0V85.2925H32.13L66.42 27.4425V85.2925H98.55L148.9 0.34248H132.83Z" fill="white"/>
</svg>
