<svg width="20" height="20" viewBox="0 0 20 20" fill="none" xmlns="http://www.w3.org/2000/svg">
<path d="M7.99951 -0.00146484C12.4182 -0.00135931 16.0004 3.58085 16.0005 7.99951C16.0004 9.7758 15.4203 11.4161 14.4409 12.7437L19.6499 17.9526C20.1183 18.4213 20.1185 19.1814 19.6499 19.6499C19.1814 20.1185 18.4213 20.1183 17.9526 19.6499L12.7437 14.4409C11.4161 15.4203 9.7758 16.0004 7.99951 16.0005C3.58085 16.0004 -0.00135931 12.4182 -0.00146484 7.99951C-0.00135851 3.58085 3.58085 -0.00135852 7.99951 -0.00146484ZM7.99951 2.39893C4.90633 2.39903 2.39903 4.90633 2.39893 7.99951C2.39903 11.0927 4.90633 13.601 7.99951 13.6011C11.0927 13.601 13.601 11.0927 13.6011 7.99951C13.601 4.90633 11.0927 2.39903 7.99951 2.39893Z" fill="#333333"/>
</svg>
