<svg width="24" height="24" viewBox="0 0 24 24" fill="none" xmlns="http://www.w3.org/2000/svg">
<path d="M21.41 11.58L12.41 2.58C12.04 2.21 11.53 2 11 2H4C3.47 2 2.96 2.21 2.59 2.59C2.21 2.96 2 3.47 2 4V11C2 11.26 2.05 11.53 2.15 11.77C2.25 12 2.4 12.23 2.59 12.42L4.57 14.4L6 13L4 11V4H11L20 13L13 20L10.87 17.87L10.7 18.04V18.03L9.45 19.28L11.59 21.42C11.97 21.79 12.47 22 13 22C13.53 22 14.04 21.79 14.41 21.41L21.41 14.41C21.79 14.04 22 13.53 22 13C22 12.74 21.95 12.5 21.85 12.23C21.75 12 21.6 11.77 21.41 11.58ZM6.5 5C6.79784 4.9995 7.08909 5.08768 7.33664 5.2533C7.58418 5.41893 7.77682 5.6545 7.89 5.93C8 6.2 8.03 6.5 7.97 6.79C7.91 7.08 7.77 7.35 7.56 7.56C7.35 7.77 7.08 7.91 6.79 7.97C6.5 8.03 6.2 8 5.93 7.89C5.60704 7.75901 5.33977 7.51964 5.1741 7.21302C5.00844 6.9064 4.95471 6.55166 5.02215 6.20973C5.08958 5.8678 5.27398 5.56003 5.54367 5.33927C5.81335 5.11852 6.15149 4.99856 6.5 5ZM10.7 15.35L11.7 14.35C11.8008 14.2472 11.8572 14.109 11.8572 13.965C11.8572 13.821 11.8008 13.6828 11.7 13.58L10.42 12.3C10.3172 12.1992 10.179 12.1428 10.035 12.1428C9.89104 12.1428 9.75281 12.1992 9.65 12.3L8.65 13.3L10.7 15.35ZM8.06 13.88L2 19.94V22H4.06L10.11 15.93L8.06 13.88Z" fill="#EEEEEE"/>
</svg>
