<svg width="24" height="24" viewBox="0 0 24 24" fill="none" xmlns="http://www.w3.org/2000/svg">
<path d="M5.99996 21.4999C5.35089 21.4997 4.71465 21.319 4.16235 20.9781C3.61004 20.6371 3.16342 20.1493 2.87239 19.5692C2.58137 18.989 2.4574 18.3393 2.51435 17.6928C2.5713 17.0462 2.80692 16.4282 3.19488 15.9079C3.58284 15.3875 4.10786 14.9853 4.71126 14.7461C5.31466 14.5069 5.97268 14.4403 6.61178 14.5536C7.25089 14.6669 7.8459 14.9557 8.33032 15.3877C8.81475 15.8197 9.16951 16.3778 9.35496 16.9999H15V14.9999H17V9.24186L14.757 6.99986H8.99996V8.99986H2.99996V2.99986H8.99996V4.99986H14.757L18 1.75586L22.243 5.99986L19 9.24086V14.9999H21V20.9999H15V18.9999H9.35496C9.13956 19.7223 8.69665 20.3559 8.09215 20.8064C7.48764 21.2568 6.75384 21.5001 5.99996 21.4999ZM5.99996 16.4999C5.60213 16.4999 5.2206 16.6579 4.9393 16.9392C4.65799 17.2205 4.49996 17.602 4.49996 17.9999C4.49996 18.3977 4.65799 18.7792 4.9393 19.0605C5.2206 19.3418 5.60213 19.4999 5.99996 19.4999C6.39778 19.4999 6.77931 19.3418 7.06062 19.0605C7.34192 18.7792 7.49996 18.3977 7.49996 17.9999C7.49996 17.602 7.34192 17.2205 7.06062 16.9392C6.77931 16.6579 6.39778 16.4999 5.99996 16.4999ZM19 16.9999H17V18.9999H19V16.9999ZM18 4.58586L16.586 5.99986L18 7.41386L19.414 5.99986L18 4.58586ZM6.99996 4.99986H4.99996V6.99986H6.99996V4.99986Z" fill="#EEEEEE"/>
</svg>
