<svg width="24" height="24" viewBox="0 0 24 24" fill="none" xmlns="http://www.w3.org/2000/svg">
<path d="M4 10V18V6V10ZM14 21C14.2833 21 14.521 20.904 14.713 20.712C14.905 20.52 15.0007 20.2827 15 20C14.9993 19.7173 14.9033 19.48 14.712 19.288C14.5207 19.096 14.2833 19 14 19C13.7167 19 13.4793 19.096 13.288 19.288C13.0967 19.48 13.0007 19.7173 13 20C12.9993 20.2827 13.0953 20.5203 13.288 20.713C13.4807 20.9057 13.718 21.0013 14 21ZM20 11C20.2833 11 20.521 10.904 20.713 10.712C20.905 10.52 21.0007 10.2827 21 10C20.9993 9.71733 20.9033 9.48 20.712 9.288C20.5207 9.096 20.2833 9 20 9C19.7167 9 19.4793 9.096 19.288 9.288C19.0967 9.48 19.0007 9.71733 19 10C18.9993 10.2827 19.0953 10.5203 19.288 10.713C19.4807 10.9057 19.718 11.0013 20 11ZM10 11C10.2833 11 10.521 10.904 10.713 10.712C10.905 10.52 11.0007 10.2827 11 10C10.9993 9.71733 10.9033 9.48 10.712 9.288C10.5207 9.096 10.2833 9 10 9H7C6.71667 9 6.47933 9.096 6.288 9.288C6.09667 9.48 6.00067 9.71733 6 10C5.99933 10.2827 6.09533 10.5203 6.288 10.713C6.48067 10.9057 6.718 11.0013 7 11H10ZM10 15C10.2833 15 10.521 14.904 10.713 14.712C10.905 14.52 11.0007 14.2827 11 14C10.9993 13.7173 10.9033 13.48 10.712 13.288C10.5207 13.096 10.2833 13 10 13H7C6.71667 13 6.47933 13.096 6.288 13.288C6.09667 13.48 6.00067 13.7173 6 14C5.99933 14.2827 6.09533 14.5203 6.288 14.713C6.48067 14.9057 6.718 15.0013 7 15H10ZM4 20C3.45 20 2.97933 19.8043 2.588 19.413C2.19667 19.0217 2.00067 18.5507 2 18V6C2 5.45 2.196 4.97933 2.588 4.588C2.98 4.19667 3.45067 4.00067 4 4H21C21.2833 4 21.521 4.096 21.713 4.288C21.905 4.48 22.0007 4.71733 22 5C21.9993 5.28267 21.9033 5.52033 21.712 5.713C21.5207 5.90567 21.2833 6.00133 21 6H4V18H8C8.28333 18 8.521 18.096 8.713 18.288C8.905 18.48 9.00067 18.7173 9 19C8.99933 19.2827 8.90333 19.5203 8.712 19.713C8.52067 19.9057 8.28333 20.0013 8 20H4ZM14 23C13.1667 23 12.4583 22.7083 11.875 22.125C11.2917 21.5417 11 20.8333 11 20C11 19.35 11.1877 18.7667 11.563 18.25C11.9383 17.7333 12.4173 17.375 13 17.175V15C13 14.7167 13.096 14.4793 13.288 14.288C13.48 14.0967 13.7173 14.0007 14 14H19V12.825C18.4167 12.625 17.9377 12.2667 17.563 11.75C17.1883 11.2333 17.0007 10.65 17 10C17 9.16667 17.2917 8.45833 17.875 7.875C18.4583 7.29167 19.1667 7 20 7C20.8333 7 21.5417 7.29167 22.125 7.875C22.7083 8.45833 23 9.16667 23 10C23 10.65 22.8127 11.2333 22.438 11.75C22.0633 12.2667 21.584 12.625 21 12.825V15C21 15.2833 20.904 15.521 20.712 15.713C20.52 15.905 20.2827 16.0007 20 16H15V17.175C15.5833 17.375 16.0627 17.7333 16.438 18.25C16.8133 18.7667 17.0007 19.35 17 20C17 20.8333 16.7083 21.5417 16.125 22.125C15.5417 22.7083 14.8333 23 14 23Z" fill="white"/>
</svg>
